# xmcd CD database file
#
# Track frame offsets:
#	150
#	25537
#	41972
#	61457
#	76905
#	95442
#	110622
#	129652
#	149215
#	164910
#
# Disc length: 2419 seconds
#
# Revision: 3
# Processed by: cddbd v1.5PL3 Copyright (c) Steve Scherf et al.
# Submitted via: CDex 1.50Beta6
#
DISCID=9309710a
DTITLE=魍魎戦記MADARA - KICA 7504 魍魎戦記MADARA SPECIAL
DYEAR=1991
DGENRE=Game
TTITLE0=聖神邪〜Escape Road
TTITLE1=真王!!復活の予言
TTITLE2=戦士の旅立ち
TTITLE3=レインツリー
TTITLE4=おだやかな光の中で
TTITLE5=Fighting human's way
TTITLE6=Snow Island
TTITLE7=チョウリョウバッコの城
TTITLE8=禍耳幽羅の城
TTITLE9=ENDING THEME
EXTD=YEAR: 1991
EXTT0=
EXTT1=
EXTT2=
EXTT3=
EXTT4=
EXTT5=
EXTT6=
EXTT7=
EXTT8=
EXTT9=
PLAYORDER=
